<svg width="13" height="13" viewBox="0 0 13 13" fill="none" xmlns="http://www.w3.org/2000/svg">
<path fill-rule="evenodd" clip-rule="evenodd" d="M7.70573 0.622398C8.53559 -0.207465 9.88107 -0.207467 10.7109 0.622398L12.2491 2.1606C13.079 2.99046 13.079 4.33594 12.2491 5.1658L4.75087 12.6641C4.61803 12.7969 4.43786 12.8715 4.25 12.8715H0.708333C0.317132 12.8715 0 12.5544 0 12.1632V8.62153C0 8.43367 0.0746277 8.2535 0.207466 8.12066L7.70573 0.622398ZM9.7092 1.62413C9.43258 1.34751 8.98409 1.34751 8.70747 1.62413L8.08507 2.24653L10.625 4.78646L11.2474 4.16406C11.524 3.88744 11.524 3.43895 11.2474 3.16233L9.7092 1.62413ZM9.62327 5.7882L7.08333 3.24826L1.41667 8.91493V11.4549H3.9566L9.62327 5.7882Z" fill="black"/>
</svg>
